<?xml version="1.0" encoding="UTF-8" standalone="no" ?>
<!DOCTYPE svg PUBLIC "-//W3C//DTD SVG 1.1//EN" "http://www.w3.org/Graphics/SVG/1.1/DTD/svg11.dtd">
<svg xmlns="http://www.w3.org/2000/svg" xmlns:xlink="http://www.w3.org/1999/xlink" version="1.1" width="518" height="156" viewBox="-5.108974358974365 0 634.2179487179487 191" xml:space="preserve">
<desc>Created with Fabric.js 5.3.0</desc>
<defs>
</defs>
<g transform="matrix(-1.452634566 0 0 1.5178397306 312 95.5)" id="JLiefrfNNE8rpr3nfKZ94"  >
<path style="stroke: none; stroke-width: 1; stroke-dasharray: none; stroke-linecap: butt; stroke-dashoffset: 0; stroke-linejoin: miter; stroke-miterlimit: 4; fill: rgb(8,73,135); fill-rule: nonzero; opacity: 1;"  transform=" translate(0.0000041661, 5.641e-7)" d="M 145.93593 25.21145 C 145.59197 25.62321 145.58253000000002 26.205479999999998 145.91297 26.62725 C 146.24341 27.04902 146.83009 27.20352 147.33948 27.00292 L 200.59108 6.03172 L 200.59108 6.03172 C 202.70933 5.19753 204.108 3.23946 204.15126 1.0476799999999997 C 204.19452 -1.1441000000000003 202.87411 -3.15132 200.79029 -4.06148 L 148.35766999999998 -26.96274 L 148.35766999999998 -26.96274 C 147.74349999999998 -27.23099 147.01738999999998 -27.06507 146.59610999999998 -26.56019 C 146.17483 -26.05532 146.16635999999997 -25.340909999999997 146.57556 -24.827019999999997 L 161.0177 -6.6900999999999975 L -200.06526000000002 -6.6900999999999975 L -200.06526000000002 -6.6900999999999975 C -202.32247 -6.6900999999999975 -204.15230000000003 -4.9388799999999975 -204.15230000000003 -2.7786299999999975 L -204.15230000000003 3.4627400000000024 L -204.15230000000003 3.4627400000000024 C -204.15230000000003 5.502970000000003 -202.42412000000002 7.1569100000000025 -200.29231000000001 7.1569100000000025 L 161.01769999999996 7.1569100000000025 z" stroke-linecap="round" />
</g>
</svg>