<svg xmlns="http://www.w3.org/2000/svg" version="1.1" xmlns:xlink="http://www.w3.org/1999/xlink" xmlns:svgjs="http://svgjs.dev/svgjs" viewBox="0 0 800 800" opacity="0.72" width="800" height="800"><g stroke-width="6.75" stroke="hsla(246, 84%, 48%, 1.00)" fill="none"><circle r="8.394736842105264" cx="0" cy="0" fill="hsla(246, 84%, 48%, 1.00)" stroke="none"></circle><circle r="8.394736842105264" cx="133.33333333333334" cy="0" fill="hsla(246, 84%, 48%, 1.00)" stroke="none"></circle><circle r="8.394736842105264" cx="266.6666666666667" cy="0" fill="hsla(246, 84%, 48%, 1.00)" stroke="none"></circle><circle r="8.394736842105264" cx="400" cy="0" fill="hsla(246, 84%, 48%, 1.00)" stroke="none"></circle><circle r="8.394736842105264" cx="533.3333333333334" cy="0" fill="hsla(246, 84%, 48%, 1.00)" stroke="none"></circle><circle r="8.394736842105264" cx="666.6666666666667" cy="0" fill="hsla(246, 84%, 48%, 1.00)" stroke="none"></circle><circle r="8.394736842105264" cx="800.0000000000001" cy="0" fill="hsla(246, 84%, 48%, 1.00)" stroke="none"></circle><circle r="8.394736842105264" cx="0" cy="200" fill="hsla(246, 84%, 48%, 1.00)" stroke="none"></circle><circle r="8.394736842105264" cx="133.33333333333334" cy="200" fill="hsla(246, 84%, 48%, 1.00)" stroke="none"></circle><circle r="8.394736842105264" cx="266.6666666666667" cy="200" fill="hsla(246, 84%, 48%, 1.00)" stroke="none"></circle><circle r="8.394736842105264" cx="400" cy="200" fill="hsla(246, 84%, 48%, 1.00)" stroke="none"></circle><circle r="8.394736842105264" cx="533.3333333333334" cy="200" fill="hsla(246, 84%, 48%, 1.00)" stroke="none"></circle><circle r="8.394736842105264" cx="666.6666666666667" cy="200" fill="hsla(246, 84%, 48%, 1.00)" stroke="none"></circle><circle r="8.394736842105264" cx="800.0000000000001" cy="200" fill="hsla(246, 84%, 48%, 1.00)" stroke="none"></circle><circle r="8.394736842105264" cx="0" cy="400" fill="hsla(246, 84%, 48%, 1.00)" stroke="none"></circle><circle r="8.394736842105264" cx="133.33333333333334" cy="400" fill="hsla(246, 84%, 48%, 1.00)" stroke="none"></circle><circle r="8.394736842105264" cx="266.6666666666667" cy="400" fill="hsla(246, 84%, 48%, 1.00)" stroke="none"></circle><circle r="8.394736842105264" cx="400" cy="400" fill="hsla(246, 84%, 48%, 1.00)" stroke="none"></circle><circle r="8.394736842105264" cx="533.3333333333334" cy="400" fill="hsla(246, 84%, 48%, 1.00)" stroke="none"></circle><circle r="8.394736842105264" cx="666.6666666666667" cy="400" fill="hsla(246, 84%, 48%, 1.00)" stroke="none"></circle><circle r="8.394736842105264" cx="800.0000000000001" cy="400" fill="hsla(246, 84%, 48%, 1.00)" stroke="none"></circle><circle r="8.394736842105264" cx="0" cy="600" fill="hsla(246, 84%, 48%, 1.00)" stroke="none"></circle><circle r="8.394736842105264" cx="133.33333333333334" cy="600" fill="hsla(246, 84%, 48%, 1.00)" stroke="none"></circle><circle r="8.394736842105264" cx="266.6666666666667" cy="600" fill="hsla(246, 84%, 48%, 1.00)" stroke="none"></circle><circle r="8.394736842105264" cx="400" cy="600" fill="hsla(246, 84%, 48%, 1.00)" stroke="none"></circle><circle r="8.394736842105264" cx="533.3333333333334" cy="600" fill="hsla(246, 84%, 48%, 1.00)" stroke="none"></circle><circle r="8.394736842105264" cx="666.6666666666667" cy="600" fill="hsla(246, 84%, 48%, 1.00)" stroke="none"></circle><circle r="8.394736842105264" cx="800.0000000000001" cy="600" fill="hsla(246, 84%, 48%, 1.00)" stroke="none"></circle><circle r="8.394736842105264" cx="0" cy="800" fill="hsla(246, 84%, 48%, 1.00)" stroke="none"></circle><circle r="8.394736842105264" cx="133.33333333333334" cy="800" fill="hsla(246, 84%, 48%, 1.00)" stroke="none"></circle><circle r="8.394736842105264" cx="266.6666666666667" cy="800" fill="hsla(246, 84%, 48%, 1.00)" stroke="none"></circle><circle r="8.394736842105264" cx="400" cy="800" fill="hsla(246, 84%, 48%, 1.00)" stroke="none"></circle><circle r="8.394736842105264" cx="533.3333333333334" cy="800" fill="hsla(246, 84%, 48%, 1.00)" stroke="none"></circle><circle r="8.394736842105264" cx="666.6666666666667" cy="800" fill="hsla(246, 84%, 48%, 1.00)" stroke="none"></circle><circle r="8.394736842105264" cx="800.0000000000001" cy="800" fill="hsla(246, 84%, 48%, 1.00)" stroke="none"></circle></g></svg>