<svg id="visual" viewBox="0 0 960 540" width="960" height="540" xmlns="http://www.w3.org/2000/svg" xmlns:xlink="http://www.w3.org/1999/xlink" version="1.1"><rect x="0" y="0" width="960" height="540" fill="#001220"></rect><path d="M0 471L20 464.7C40 458.3 80 445.7 120 443.8C160 442 200 451 240 448C280 445 320 430 360 420.8C400 411.7 440 408.3 480 412.7C520 417 560 429 600 437.3C640 445.7 680 450.3 720 446.2C760 442 800 429 840 416.8C880 404.7 920 393.3 940 387.7L960 382L960 541L940 541C920 541 880 541 840 541C800 541 760 541 720 541C680 541 640 541 600 541C560 541 520 541 480 541C440 541 400 541 360 541C320 541 280 541 240 541C200 541 160 541 120 541C80 541 40 541 20 541L0 541Z" fill="#1c3882"></path><path d="M0 437L20 438.8C40 440.7 80 444.3 120 444C160 443.7 200 439.3 240 437.8C280 436.3 320 437.7 360 442.8C400 448 440 457 480 454.5C520 452 560 438 600 437.8C640 437.7 680 451.3 720 459.2C760 467 800 469 840 462.7C880 456.3 920 441.7 940 434.3L960 427L960 541L940 541C920 541 880 541 840 541C800 541 760 541 720 541C680 541 640 541 600 541C560 541 520 541 480 541C440 541 400 541 360 541C320 541 280 541 240 541C200 541 160 541 120 541C80 541 40 541 20 541L0 541Z" fill="#1a3076"></path><path d="M0 485L20 477.8C40 470.7 80 456.3 120 450.7C160 445 200 448 240 452.3C280 456.7 320 462.3 360 468.2C400 474 440 480 480 483.7C520 487.3 560 488.7 600 490.5C640 492.3 680 494.7 720 486C760 477.3 800 457.7 840 451.2C880 444.7 920 451.3 940 454.7L960 458L960 541L940 541C920 541 880 541 840 541C800 541 760 541 720 541C680 541 640 541 600 541C560 541 520 541 480 541C440 541 400 541 360 541C320 541 280 541 240 541C200 541 160 541 120 541C80 541 40 541 20 541L0 541Z" fill="#17296b"></path><path d="M0 509L20 505.3C40 501.7 80 494.3 120 494.3C160 494.3 200 501.7 240 499.3C280 497 320 485 360 481.8C400 478.7 440 484.3 480 485.3C520 486.3 560 482.7 600 485.3C640 488 680 497 720 500.2C760 503.3 800 500.7 840 494.5C880 488.3 920 478.7 940 473.8L960 469L960 541L940 541C920 541 880 541 840 541C800 541 760 541 720 541C680 541 640 541 600 541C560 541 520 541 480 541C440 541 400 541 360 541C320 541 280 541 240 541C200 541 160 541 120 541C80 541 40 541 20 541L0 541Z" fill="#142160"></path><path d="M0 486L20 490.2C40 494.3 80 502.7 120 504.3C160 506 200 501 240 502.2C280 503.3 320 510.7 360 512.7C400 514.7 440 511.3 480 506.7C520 502 560 496 600 497.2C640 498.3 680 506.7 720 509.2C760 511.7 800 508.3 840 507.3C880 506.3 920 507.7 940 508.3L960 509L960 541L940 541C920 541 880 541 840 541C800 541 760 541 720 541C680 541 640 541 600 541C560 541 520 541 480 541C440 541 400 541 360 541C320 541 280 541 240 541C200 541 160 541 120 541C80 541 40 541 20 541L0 541Z" fill="#101a55"></path></svg>